<svg width="192" height="160" viewBox="0 0 192 160" fill="none" xmlns="http://www.w3.org/2000/svg">
<path d="M55.0153 159.64C37.4153 159.64 23.922 154.653 14.5353 144.68C5.14865 134.56 0.455313 120.113 0.455313 101.34V56.9C0.455313 38.7133 5.14865 24.78 14.5353 15.1C23.922 5.27333 37.4153 0.359997 55.0153 0.359997C72.762 0.359997 86.3287 5.2 95.7153 14.88C105.102 24.56 109.795 38.5667 109.795 56.9V101.34C109.795 120.113 105.102 134.56 95.7153 144.68C86.3287 154.653 72.762 159.64 55.0153 159.64ZM55.0153 140.94C64.9886 140.94 72.6153 137.567 77.8953 130.82C83.1753 124.073 85.8153 114.247 85.8153 101.34V56.9C85.8153 44.58 83.1753 35.1933 77.8953 28.74C72.6153 22.2867 64.9886 19.06 55.0153 19.06C45.1886 19.06 37.6353 22.36 32.3553 28.96C27.0753 35.4133 24.4353 44.7267 24.4353 56.9V101.34C24.4353 114.247 27.002 124.073 32.1353 130.82C37.4153 137.567 45.042 140.94 55.0153 140.94ZM191.697 2.99999V157H167.717V24.78L132.517 45.46V24.12L168.817 2.99999H191.697Z" fill="#EEA120" fill-opacity="0.18"/>
</svg>
