<svg width="70" height="72" viewBox="0 0 70 72" fill="none" xmlns="http://www.w3.org/2000/svg">
<mask id="path-1-inside-1_1417_15186" fill="white">
<path d="M35.2641 22.0285C34.8668 20.998 33.7027 20.4752 32.7163 20.9733C30.1327 22.2778 27.8577 24.1338 26.0576 26.4186C23.8436 29.2286 22.4298 32.5832 21.9653 36.1286C21.5008 39.674 22.0028 43.2789 23.4183 46.5632C24.8338 49.8475 27.1104 52.6896 30.008 54.7896C32.9057 56.8897 36.317 58.17 39.8824 58.4955C43.4477 58.821 47.0349 58.1797 50.2658 56.6393C53.4967 55.0988 56.2516 52.7162 58.2399 49.7426C59.8565 47.3251 60.9177 44.5898 61.3585 41.7324C61.5268 40.6411 60.6681 39.6974 59.564 39.6397L51.5868 39.2233C50.4834 39.1657 49.5665 40.0274 49.2344 41.0798C49.0105 41.7897 48.6861 42.4675 48.2686 43.092C47.4785 44.2735 46.3838 45.2203 45.1 45.8324C43.8161 46.4446 42.3907 46.6994 40.974 46.57C39.5573 46.4407 38.2017 45.9319 37.0503 45.0974C35.8989 44.263 34.9943 43.1337 34.4318 41.8286C33.8694 40.5236 33.6699 39.0911 33.8545 37.6823C34.0391 36.2735 34.6008 34.9405 35.4806 33.824C35.9455 33.2338 36.4902 32.7157 37.0965 32.2829C37.9953 31.6413 38.5311 30.503 38.134 29.4728L35.2641 22.0285Z"/>
</mask>
<path d="M35.2641 22.0285C34.8668 20.998 33.7027 20.4752 32.7163 20.9733C30.1327 22.2778 27.8577 24.1338 26.0576 26.4186C23.8436 29.2286 22.4298 32.5832 21.9653 36.1286C21.5008 39.674 22.0028 43.2789 23.4183 46.5632C24.8338 49.8475 27.1104 52.6896 30.008 54.7896C32.9057 56.8897 36.317 58.17 39.8824 58.4955C43.4477 58.821 47.0349 58.1797 50.2658 56.6393C53.4967 55.0988 56.2516 52.7162 58.2399 49.7426C59.8565 47.3251 60.9177 44.5898 61.3585 41.7324C61.5268 40.6411 60.6681 39.6974 59.564 39.6397L51.5868 39.2233C50.4834 39.1657 49.5665 40.0274 49.2344 41.0798C49.0105 41.7897 48.6861 42.4675 48.2686 43.092C47.4785 44.2735 46.3838 45.2203 45.1 45.8324C43.8161 46.4446 42.3907 46.6994 40.974 46.57C39.5573 46.4407 38.2017 45.9319 37.0503 45.0974C35.8989 44.263 34.9943 43.1337 34.4318 41.8286C33.8694 40.5236 33.6699 39.0911 33.8545 37.6823C34.0391 36.2735 34.6008 34.9405 35.4806 33.824C35.9455 33.2338 36.4902 32.7157 37.0965 32.2829C37.9953 31.6413 38.5311 30.503 38.134 29.4728L35.2641 22.0285Z" stroke="#A7A7A7" stroke-width="2" stroke-dasharray="3 3" mask="url(#path-1-inside-1_1417_15186)"/>
<path d="M15.4544 20.6866C15.0571 19.6562 13.8895 19.1304 12.924 19.6676C11.2867 20.5788 9.83998 21.8078 8.67274 23.2893C7.09134 25.2965 6.08151 27.6926 5.74972 30.225C5.41792 32.7575 5.77647 35.3324 6.78754 37.6783C7.79861 40.0242 9.42475 42.0543 11.4945 43.5543C13.5643 45.0543 16.0009 45.9688 18.5476 46.2014C21.0943 46.4339 23.6566 45.9758 25.9644 44.8755C28.2721 43.7751 30.2399 42.0733 31.6601 39.9493C32.7083 38.3819 33.4296 36.6274 33.7892 34.7904C34.0014 33.7068 33.1388 32.7608 32.0347 32.7031L27.4787 32.4653C26.3753 32.4077 25.4654 33.2829 25.0286 34.2964C24.8934 34.6102 24.7293 34.9124 24.5377 35.1988C23.9734 36.0428 23.1915 36.7191 22.2745 37.1563C21.3574 37.5935 20.3393 37.7756 19.3273 37.6832C18.3154 37.5908 17.3472 37.2274 16.5247 36.6313C15.7023 36.0353 15.0561 35.2286 14.6544 34.2964C14.2526 33.3643 14.1101 32.3411 14.242 31.3348C14.3738 30.3285 14.7751 29.3764 15.4035 28.5788C15.6167 28.3082 15.8535 28.0587 16.1103 27.8329C16.9396 27.1039 17.4905 25.9682 17.0933 24.938L15.4544 20.6866Z" fill="#EEA120" fill-opacity="0.7"/>
</svg>
