<svg width="16" height="223" viewBox="0 0 16 223" fill="none" xmlns="http://www.w3.org/2000/svg">
<path d="M9.14648 1.23779C9.14648 0.685508 8.69877 0.237793 8.14648 0.237793C7.5942 0.237793 7.14648 0.685508 7.14648 1.23779H9.14648ZM7.43938 221.945C7.8299 222.335 8.46307 222.335 8.85359 221.945L15.2176 215.581C15.6081 215.19 15.6081 214.557 15.2176 214.167C14.827 213.776 14.1939 213.776 13.8033 214.167L8.14648 219.824L2.48963 214.167C2.09911 213.776 1.46594 213.776 1.07542 214.167C0.684892 214.557 0.684892 215.19 1.07542 215.581L7.43938 221.945ZM7.14648 1.23779V221.238H9.14648V1.23779H7.14648Z" fill="#A7A7A7"/>
</svg>
