<svg width="60" height="61" viewBox="0 0 60 61" fill="none" xmlns="http://www.w3.org/2000/svg">
<g clip-path="url(#clip0_1417_10966)">
<path d="M23.7975 30.7418C23.3405 30.2836 22.5976 30.2836 22.1405 30.7418C21.6823 31.1989 21.6823 31.9419 22.1405 32.3989C22.5976 32.8571 23.3405 32.8571 23.7975 32.3989C24.2557 31.9419 24.2557 31.1989 23.7975 30.7418Z" fill="#E89202"/>
<path d="M30 32.7422C28.0615 32.7422 26.4844 34.3193 26.4844 36.2578C26.4844 38.1963 28.0615 39.7734 30 39.7734C31.9385 39.7734 33.5156 38.1963 33.5156 36.2578C33.5156 34.3193 31.9385 32.7422 30 32.7422ZM30 37.4297C29.3538 37.4297 28.8281 36.904 28.8281 36.2578C28.8281 35.6116 29.3538 35.0859 30 35.0859C30.6462 35.0859 31.1719 35.6116 31.1719 36.2578C31.1719 36.904 30.6462 37.4297 30 37.4297Z" fill="#E89202"/>
<path d="M30 26.8828C28.6901 26.8828 27.4234 27.1475 26.2355 27.6697C25.643 27.9302 25.3738 28.6216 25.6342 29.2141C25.8946 29.8066 26.5861 30.0757 27.1786 29.8154C28.0675 29.4247 29.0168 29.2266 30 29.2266C33.877 29.2266 37.0312 32.3808 37.0312 36.2578C37.0312 40.1348 33.877 43.2891 30 43.2891C26.123 43.2891 22.9688 40.1348 22.9688 36.2578C22.9688 36.2177 22.9686 36.1786 22.9696 36.1385C22.9846 35.4915 22.4722 34.9548 21.8252 34.9398C21.1772 34.9236 20.6415 35.437 20.6265 36.0841C20.6251 36.1425 20.625 36.1995 20.625 36.2578C20.625 41.4272 24.8306 45.6328 30 45.6328C35.1694 45.6328 39.375 41.4272 39.375 36.2578C39.375 31.0884 35.1694 26.8828 30 26.8828Z" fill="#E89202"/>
<path d="M30 9.30469C29.3528 9.30469 28.8281 9.82934 28.8281 10.4766V17.5078C28.8281 18.155 29.3528 18.6797 30 18.6797C30.6472 18.6797 31.1719 18.155 31.1719 17.5078V10.4766C31.1719 9.82934 30.6472 9.30469 30 9.30469Z" fill="#E89202"/>
<path d="M16.9092 17.9928L11.9381 13.0217C11.4805 12.5641 10.7384 12.5641 10.2807 13.0217C9.8231 13.4793 9.8231 14.2213 10.2807 14.6791L15.2518 19.6501C15.7094 20.1078 16.4516 20.1079 16.9092 19.6501C17.3668 19.1925 17.3668 18.4505 16.9092 17.9928Z" fill="#E89202"/>
<path d="M49.7217 13.0217C49.264 12.5641 48.522 12.5641 48.0643 13.0217L43.0932 17.9928C42.6356 18.4504 42.6356 19.1924 43.0932 19.6501C43.5507 20.1078 44.2929 20.1079 44.7506 19.6501L49.7217 14.6791C50.1793 14.2214 50.1793 13.4794 49.7217 13.0217Z" fill="#E89202"/>
<path d="M59.7064 36.4582C52.2621 28.0302 41.2085 21.0234 30 21.0234C18.79 21.0234 7.73647 28.032 0.293544 36.4582C-0.134893 36.9434 -0.0889557 37.6839 0.396083 38.1123C0.88124 38.5407 1.62186 38.4948 2.05019 38.0098C2.29991 37.727 2.55573 37.4453 2.81483 37.1653C8.60565 45.915 19.1031 51.4922 30 51.4922C40.8969 51.4922 51.3943 45.915 57.1852 37.1653C57.4443 37.4454 57.7001 37.7271 57.9498 38.0098C58.3768 38.4933 59.1173 38.542 59.6039 38.1123C60.0889 37.6839 60.1349 36.9432 59.7064 36.4582ZM30 49.1484C19.6975 49.1484 9.78854 43.7954 4.48956 35.4398C8.66472 31.3487 18.3118 23.3672 30 23.3672C41.6883 23.3672 51.3353 31.3487 55.5104 35.4397C50.2114 43.7954 40.3025 49.1484 30 49.1484Z" fill="#E89202"/>
</g>
<defs>
<clipPath id="clip0_1417_10966">
<rect width="60" height="60" fill="white" transform="translate(0 0.398438)"/>
</clipPath>
</defs>
</svg>
