<svg width="25" height="24" viewBox="0 0 25 24" fill="none" xmlns="http://www.w3.org/2000/svg">
<g clip-path="url(#clip0_1417_15385)">
<path d="M24.6953 12C24.6953 5.37188 19.3234 0 12.6953 0C6.06719 0 0.695312 5.37188 0.695312 12C0.695312 18.6281 6.06719 24 12.6953 24C12.7656 24 12.8359 24 12.9062 23.9953V14.6578H10.3281V11.6531H12.9062V9.44062C12.9062 6.87656 14.4719 5.47969 16.7594 5.47969C17.8563 5.47969 18.7984 5.55938 19.0703 5.59688V8.27813H17.4953C16.2531 8.27813 16.0094 8.86875 16.0094 9.73594V11.6484H18.9859L18.5969 14.6531H16.0094V23.5359C21.025 22.0969 24.6953 17.4797 24.6953 12Z" fill="#A7A7A7"/>
</g>
<defs>
<clipPath id="clip0_1417_15385">
<rect width="24" height="24" fill="white" transform="translate(0.695312)"/>
</clipPath>
</defs>
</svg>
