<svg width="25" height="24" viewBox="0 0 25 24" fill="none" xmlns="http://www.w3.org/2000/svg">
<g clip-path="url(#clip0_1417_15394)">
<path d="M14.9922 12C14.9922 13.2686 13.9639 14.2969 12.6953 14.2969C11.4268 14.2969 10.3984 13.2686 10.3984 12C10.3984 10.7314 11.4268 9.70312 12.6953 9.70312C13.9639 9.70312 14.9922 10.7314 14.9922 12Z" fill="#A7A7A7"/>
<path d="M18.0667 7.93616C17.9562 7.63696 17.7801 7.36615 17.5512 7.14386C17.3289 6.91498 17.0583 6.73883 16.7589 6.62842C16.5161 6.53412 16.1514 6.42188 15.4796 6.3913C14.7528 6.35815 14.5349 6.35101 12.6951 6.35101C10.855 6.35101 10.6371 6.35797 9.91058 6.39111C9.23877 6.42188 8.87384 6.53412 8.63123 6.62842C8.33185 6.73883 8.06104 6.91498 7.83893 7.14386C7.61005 7.36615 7.4339 7.63678 7.3233 7.93616C7.229 8.17896 7.11676 8.54388 7.08618 9.2157C7.05304 9.94226 7.0459 10.1602 7.0459 12.0002C7.0459 13.84 7.05304 14.0579 7.08618 14.7847C7.11676 15.4565 7.229 15.8212 7.3233 16.064C7.4339 16.3634 7.60986 16.634 7.83875 16.8563C8.06104 17.0852 8.33167 17.2614 8.63104 17.3718C8.87384 17.4662 9.23877 17.5785 9.91058 17.6091C10.6371 17.6422 10.8549 17.6492 12.6949 17.6492C14.5351 17.6492 14.753 17.6422 15.4794 17.6091C16.1512 17.5785 16.5161 17.4662 16.7589 17.3718C17.3599 17.14 17.8348 16.665 18.0667 16.064C18.1609 15.8212 18.2732 15.4565 18.304 14.7847C18.3371 14.0579 18.3441 13.84 18.3441 12.0002C18.3441 10.1602 18.3371 9.94226 18.304 9.2157C18.2734 8.54388 18.1611 8.17896 18.0667 7.93616ZM12.6951 15.5383C10.7408 15.5383 9.15656 13.9543 9.15656 12C9.15656 10.0457 10.7408 8.46167 12.6951 8.46167C14.6492 8.46167 16.2334 10.0457 16.2334 12C16.2334 13.9543 14.6492 15.5383 12.6951 15.5383ZM16.3733 9.14868C15.9166 9.14868 15.5464 8.77844 15.5464 8.32178C15.5464 7.86511 15.9166 7.49487 16.3733 7.49487C16.83 7.49487 17.2002 7.86511 17.2002 8.32178C17.2 8.77844 16.83 9.14868 16.3733 9.14868Z" fill="#A7A7A7"/>
<path d="M12.6953 0C6.06891 0 0.695312 5.3736 0.695312 12C0.695312 18.6264 6.06891 24 12.6953 24C19.3217 24 24.6953 18.6264 24.6953 12C24.6953 5.3736 19.3217 0 12.6953 0ZM19.5444 14.8409C19.511 15.5744 19.3944 16.0752 19.2241 16.5135C18.8661 17.4391 18.1345 18.1708 17.2089 18.5288C16.7707 18.6991 16.2697 18.8156 15.5364 18.8491C14.8016 18.8826 14.5668 18.8906 12.6955 18.8906C10.824 18.8906 10.5894 18.8826 9.85443 18.8491C9.12109 18.8156 8.62012 18.6991 8.18195 18.5288C7.72198 18.3558 7.3056 18.0846 6.96136 17.7339C6.6109 17.3899 6.33972 16.9733 6.16669 16.5135C5.9964 16.0754 5.87976 15.5744 5.84644 14.8411C5.81256 14.1061 5.80469 13.8713 5.80469 12C5.80469 10.1287 5.81256 9.89392 5.84625 9.15912C5.87958 8.4256 5.99603 7.9248 6.16632 7.48645C6.33936 7.02667 6.61072 6.61011 6.96136 6.26605C7.30542 5.91541 7.72198 5.64423 8.18176 5.47119C8.62012 5.3009 9.12091 5.18445 9.85443 5.15094C10.5892 5.11743 10.824 5.10938 12.6953 5.10938C14.5667 5.10938 14.8014 5.11743 15.5362 5.15112C16.2697 5.18445 16.7705 5.3009 17.2089 5.47101C17.6686 5.64404 18.0852 5.91541 18.4294 6.26605C18.7799 6.61029 19.0513 7.02667 19.2241 7.48645C19.3946 7.9248 19.511 8.4256 19.5446 9.15912C19.5781 9.89392 19.5859 10.1287 19.5859 12C19.5859 13.8713 19.5781 14.1061 19.5444 14.8409Z" fill="#A7A7A7"/>
</g>
<defs>
<clipPath id="clip0_1417_15394">
<rect width="24" height="24" fill="white" transform="translate(0.695312)"/>
</clipPath>
</defs>
</svg>
