<svg width="33" height="33" viewBox="0 0 33 33" fill="none" xmlns="http://www.w3.org/2000/svg">
<g clip-path="url(#clip0_1417_11087)">
<path d="M16.8008 0.737793C7.96558 0.737793 0.800781 7.90259 0.800781 16.7378C0.800781 25.573 7.96558 32.7378 16.8008 32.7378C25.636 32.7378 32.8008 25.573 32.8008 16.7378C32.8008 7.90259 25.636 0.737793 16.8008 0.737793ZM12.1514 24.9253H8.25464V13.2019H12.1514V24.9253ZM10.2031 11.6011H10.1777C8.87012 11.6011 8.02441 10.7009 8.02441 9.57593C8.02441 8.42554 8.896 7.55029 10.229 7.55029C11.562 7.55029 12.3823 8.42554 12.4077 9.57593C12.4077 10.7009 11.562 11.6011 10.2031 11.6011ZM26.2021 24.9253H22.3059V18.6536C22.3059 17.0774 21.7417 16.0024 20.3318 16.0024C19.2554 16.0024 18.6143 16.7275 18.3325 17.4275C18.2295 17.678 18.2043 18.0281 18.2043 18.3784V24.9253H14.3079C14.3079 24.9253 14.3589 14.3018 14.3079 13.2019H18.2043V14.8618C18.7222 14.063 19.6487 12.9268 21.7161 12.9268C24.2798 12.9268 26.2021 14.6023 26.2021 18.2031V24.9253Z" fill="#E89202"/>
</g>
<defs>
<clipPath id="clip0_1417_11087">
<rect width="32" height="32" fill="white" transform="translate(0.800781 0.737793)"/>
</clipPath>
</defs>
</svg>
