<svg width="25" height="24" viewBox="0 0 25 24" fill="none" xmlns="http://www.w3.org/2000/svg">
<g clip-path="url(#clip0_1417_15387)">
<path d="M12.6953 0C6.06891 0 0.695312 5.3736 0.695312 12C0.695312 18.6264 6.06891 24 12.6953 24C19.3217 24 24.6953 18.6264 24.6953 12C24.6953 5.3736 19.3217 0 12.6953 0ZM9.20825 18.1406H6.28571V9.34808H9.20825V18.1406ZM7.74707 8.14746H7.72803C6.74731 8.14746 6.11304 7.47235 6.11304 6.6286C6.11304 5.76581 6.76672 5.10938 7.76648 5.10938C8.76624 5.10938 9.38147 5.76581 9.40051 6.6286C9.40051 7.47235 8.76624 8.14746 7.74707 8.14746ZM19.7463 18.1406H16.8242V13.4368C16.8242 12.2547 16.401 11.4485 15.3436 11.4485C14.5363 11.4485 14.0554 11.9923 13.8441 12.5173C13.7668 12.7051 13.748 12.9677 13.748 13.2305V18.1406H10.8256C10.8256 18.1406 10.8639 10.173 10.8256 9.34808H13.748V10.593C14.1364 9.9939 14.8312 9.14172 16.3818 9.14172C18.3046 9.14172 19.7463 10.3984 19.7463 13.099V18.1406Z" fill="#A7A7A7"/>
</g>
<defs>
<clipPath id="clip0_1417_15387">
<rect width="24" height="24" fill="white" transform="translate(0.695312)"/>
</clipPath>
</defs>
</svg>
