<svg width="62" height="49" viewBox="0 0 62 49" fill="none" xmlns="http://www.w3.org/2000/svg">
<path d="M32.8456 4.82774L34.9628 2.71059L35.3163 3.06414L36.3749 2.00556C36.5194 1.86109 36.6849 1.7529 36.8611 1.67999L36.67 1.21797C37.159 1.01564 37.7121 1.01564 38.2011 1.21797L38.0099 1.67999C38.1862 1.7529 38.3517 1.86109 38.4962 2.00556L39.5548 3.06414L39.9083 2.71059L42.0255 4.82774L41.6719 5.1813L43.7891 7.29845L44.1427 6.9449L46.2598 9.06206L45.9063 9.41561L48.0234 11.5328L48.377 11.1792L50.4941 13.2964L50.1406 13.6499L52.2577 15.7671L52.6113 15.4135L54.7284 17.5307L54.3749 17.8842L56.492 20.0014L56.8456 19.6478L58.9628 21.765L58.6092 22.1186L59.6678 23.1771C59.8122 23.3216 59.9204 23.4872 59.9934 23.6634L60.4554 23.4722C60.6577 23.9613 60.6577 24.5143 60.4554 25.0034L59.9934 24.8122C59.9204 24.9884 59.8122 25.154 59.6678 25.2985L58.6092 26.357L58.9628 26.7106L56.8456 28.8277L56.492 28.4742L54.3749 30.5913L54.7284 30.9449L52.6113 33.0621L52.2577 32.7085L50.1406 34.8257L50.4941 35.1792L48.377 37.2964L48.0234 36.9428L45.9063 39.06L46.2598 39.4135L44.1427 41.5307L43.7891 41.1771L41.6719 43.2943L42.0255 43.6478L39.9083 45.765L39.5548 45.4114L38.4962 46.47C38.3517 46.6145 38.1862 46.7227 38.0099 46.7956L38.2011 47.2576C37.7121 47.4599 37.159 47.4599 36.67 47.2576L36.8611 46.7956C36.6849 46.7227 36.5194 46.6145 36.3749 46.47L35.3163 45.4114L34.9628 45.765L32.8456 43.6478L33.1992 43.2943L31.082 41.1771L30.7284 41.5307L28.6113 39.4135L28.9648 39.06L26.8477 36.9428L26.4941 37.2964L24.377 35.1792L24.7305 34.8257L22.6134 32.7085L22.2598 33.0621L20.1427 30.9449L20.4962 30.5913L18.379 28.4742L18.0255 28.8277L15.9083 26.7106L16.2619 26.357L15.2033 25.2985C15.0588 25.154 14.9507 24.9884 14.8777 24.8122L14.4157 25.0034C14.2134 24.5143 14.2134 23.9613 14.4157 23.4722L14.8777 23.6634C14.9507 23.4872 15.0588 23.3216 15.2033 23.1771L16.2619 22.1186L15.9083 21.765L18.0255 19.6478L18.3791 20.0014L20.4962 17.8842L20.1427 17.5307L22.2598 15.4135L22.6134 15.7671L24.7305 13.6499L24.377 13.2964L26.4941 11.1792L26.8477 11.5328L28.9648 9.41561L28.6113 9.06206L30.7284 6.9449L31.082 7.29845L33.1992 5.1813L32.8456 4.82774Z" stroke="#A7A7A7" stroke-dasharray="3 3"/>
<path d="M16.1056 15.3662C16.8866 14.5852 18.153 14.5852 18.934 15.3662L33.2485 29.6807C34.0295 30.4617 34.0295 31.7281 33.2485 32.5091L18.934 46.8235C18.153 47.6046 16.8866 47.6046 16.1056 46.8235L1.79117 32.5091C1.01012 31.7281 1.01012 30.4617 1.79117 29.6807L16.1056 15.3662Z" fill="#EEA120" fill-opacity="0.7"/>
</svg>
