<svg width="61" height="49" viewBox="0 0 61 49" fill="none" xmlns="http://www.w3.org/2000/svg">
<path d="M34.2818 9.64661L35.0001 7.43598L35.4756 7.59049L35.8347 6.48517C35.9453 6.14481 36.1399 5.89694 36.3727 5.72902L36.0802 5.3235C36.7731 4.82376 37.7496 4.82376 38.4424 5.3235L38.15 5.72902C38.3828 5.89694 38.5773 6.14481 38.6879 6.48517L39.047 7.59048L39.5226 7.43598L40.2409 9.6466L39.7653 9.80111L40.4836 12.0117L40.9591 11.8572L41.6774 14.0679L41.2019 14.2224L41.561 15.3277C41.6436 15.5819 41.7645 15.8162 41.916 16.0247L42.3205 15.7308C42.5686 16.0721 42.9193 16.3269 43.3206 16.4574L43.166 16.9329C43.4112 17.0126 43.6714 17.0551 43.9387 17.0551H45.1008V16.5551H47.4252V17.0551L49.7496 17.0551V16.5551H52.074V17.0551H53.2362C53.5941 17.0551 53.8899 17.1636 54.1216 17.3331L54.4169 16.9296C55.1063 17.4342 55.408 18.3628 55.1469 19.1762L54.6708 19.0234C54.583 19.2967 54.4074 19.5583 54.1179 19.7687L53.1777 20.4518L53.4716 20.8563L51.5911 22.2225L51.2972 21.818L49.4167 23.1843L49.7106 23.5888L47.8301 24.955L47.5362 24.5505L46.596 25.2336C46.3798 25.3907 46.1943 25.5781 46.0428 25.7867L46.4473 26.0805C46.1993 26.4219 46.0654 26.8342 46.0653 27.2562L45.5653 27.2561C45.5653 27.5139 45.6052 27.7745 45.6878 28.0287L46.047 29.134L46.5225 28.9795L47.2408 31.1902L46.7652 31.3447L47.4835 33.5553L47.959 33.4008L48.6773 35.6114L48.2018 35.7659L48.5609 36.8712C48.6715 37.2116 48.6598 37.5265 48.5702 37.7992L49.0452 37.9553C48.7784 38.7669 47.9884 39.3408 47.1341 39.3438L47.1323 38.8438C46.8453 38.8448 46.5422 38.7586 46.2527 38.5483L45.3124 37.8652L45.0185 38.2697L43.1381 36.9034L43.432 36.4989L41.5515 35.1327L41.2576 35.5372L39.3771 34.1709L39.671 33.7664L38.7308 33.0833C38.5146 32.9262 38.2791 32.8077 38.0338 32.7281L37.8794 33.2036C37.4781 33.0733 37.0446 33.0733 36.6433 33.2036L36.4888 32.7281C36.2436 32.8077 36.0081 32.9262 35.7919 33.0833L34.8516 33.7664L35.1455 34.1709L33.265 35.5372L32.9712 35.1327L31.0907 36.4989L31.3846 36.9034L29.5041 38.2697L29.2102 37.8652L28.27 38.5483C27.9804 38.7586 27.6774 38.8448 27.3903 38.8438L27.3886 39.3438C26.5343 39.3408 25.7443 38.7669 25.4775 37.9553L25.9525 37.7992C25.8628 37.5265 25.8511 37.2116 25.9617 36.8712L26.3208 35.7659L25.8453 35.6114L26.5636 33.4008L27.0391 33.5553L27.7574 31.3447L27.2819 31.1902L28.0001 28.9795L28.4757 29.134L28.8348 28.0287C28.9174 27.7745 28.9573 27.5139 28.9573 27.2561L28.4573 27.2562C28.4573 26.8342 28.3233 26.4219 28.0753 26.0805L28.4799 25.7867C28.3283 25.5781 28.1429 25.3907 27.9266 25.2336L26.9864 24.5505L26.6925 24.955L24.812 23.5888L25.1059 23.1843L23.2255 21.818L22.9316 22.2225L21.0511 20.8563L21.345 20.4518L20.4047 19.7687C20.1152 19.5583 19.9396 19.2967 19.8518 19.0234L19.3758 19.1762C19.1146 18.3629 19.4164 17.4342 20.1058 16.9296L20.401 17.3331C20.6327 17.1636 20.9285 17.0551 21.2864 17.0551H22.4486V16.5551H24.773L24.773 17.0551L27.0974 17.0551V16.5551H29.4218V17.0551H30.584C30.8513 17.0551 31.1114 17.0126 31.3566 16.9329L31.2021 16.4574C31.6034 16.3269 31.9541 16.0721 32.2021 15.7308L32.6066 16.0247C32.7582 15.8162 32.879 15.5819 32.9616 15.3277L33.3208 14.2224L32.8452 14.0679L33.5635 11.8572L34.039 12.0117L34.7573 9.80111L34.2818 9.64661Z" stroke="#A7A7A7" stroke-dasharray="3 3"/>
<path d="M15.414 21.089C16.0127 19.2463 18.6195 19.2463 19.2182 21.089L20.5987 25.3376C20.8664 26.1616 21.6344 26.7196 22.5008 26.7196H26.9681C28.9055 26.7196 29.7111 29.1988 28.1437 30.3376L24.5296 32.9634C23.8286 33.4727 23.5353 34.3754 23.803 35.1995L25.1835 39.4481C25.7822 41.2907 23.6732 42.823 22.1058 41.6842L18.4917 39.0584C17.7907 38.5491 16.8415 38.5491 16.1406 39.0584L12.5265 41.6842C10.959 42.823 8.85006 41.2907 9.44877 39.4481L10.8292 35.1995C11.097 34.3754 10.8037 33.4727 10.1027 32.9634L6.48859 30.3376C4.92117 29.1988 5.72671 26.7196 7.66416 26.7196H12.1314C12.9979 26.7196 13.7658 26.1616 14.0335 25.3376L15.414 21.089Z" fill="#EEA120" fill-opacity="0.7"/>
</svg>
