<svg width="60" height="61" viewBox="0 0 60 61" fill="none" xmlns="http://www.w3.org/2000/svg">
<g clip-path="url(#clip0_1417_10953)">
<path d="M52.2257 14.9085C52.7877 14.9085 53.3296 14.6855 53.7293 14.2856L59.6201 8.39486C60.4072 7.60772 59.8946 6.25678 58.7856 6.18717L55.6508 5.99042L57.6963 3.94491C58.0396 3.60167 58.0396 3.04515 57.6963 2.70202C57.353 2.35878 56.7966 2.35878 56.4533 2.70202L54.4078 4.74753L54.2111 1.61277C54.1413 0.501715 52.7891 -0.00734654 52.0034 0.778277L46.1125 6.66905C45.6811 7.10041 45.4558 7.69701 45.494 8.3058L45.6965 11.5317C40.78 7.33971 34.4436 4.93573 27.7313 4.93573C12.4044 4.93573 0 17.3386 0 32.6669C0 39.5846 2.56171 46.2103 7.21346 51.3231C7.5403 51.6821 8.09612 51.7083 8.45506 51.3817C8.81412 51.055 8.84037 50.4992 8.51377 50.1401C4.1571 45.3516 1.75781 39.1462 1.75781 32.6669C1.75781 18.3451 13.4095 6.69342 27.7313 6.69342C34.4429 6.69342 40.7583 9.26568 45.4823 13.673L41.4719 17.6832C37.845 14.3541 33.0161 12.3168 27.7313 12.3168C16.5103 12.3168 7.38127 21.4458 7.38127 32.6668C7.38127 35.8963 8.16033 39.1129 9.63455 41.9693C9.63467 41.9694 9.63467 41.9695 9.63479 41.9696C13.0507 48.5885 19.9302 53.0168 27.7314 53.0168C37.3442 53.0168 45.7047 46.2271 47.6587 36.8045C47.7572 36.3291 47.4518 35.8639 46.9765 35.7654C46.5013 35.6668 46.0361 35.9722 45.9375 36.4475C44.1577 45.0298 36.501 51.259 27.7315 51.259C20.7461 51.259 14.4103 47.3906 11.1969 41.1635C11.1969 41.1634 11.1968 41.1632 11.1968 41.1631C9.83154 38.5176 9.1392 35.6591 9.1392 32.6668C9.1392 22.415 17.4797 14.0746 27.7314 14.0746C32.5326 14.0746 36.9222 15.9147 40.2293 18.9258L36.2547 22.9004C33.9738 20.9073 30.9913 19.6979 27.7314 19.6979C20.5804 19.6979 14.7627 25.5157 14.7627 32.6667C14.7627 39.8177 20.5804 45.6355 27.7314 45.6355C34.8824 45.6355 40.7003 39.8177 40.7003 32.6667C40.7003 29.4068 39.4909 26.4244 37.4977 24.1434L41.4726 20.1686C44.4604 23.4491 46.2961 27.7963 46.3233 32.5585C46.326 33.0422 46.719 33.4324 47.2021 33.4324H47.2072C47.6926 33.4296 48.0838 33.0338 48.0811 32.5485C48.0511 27.3061 46.019 22.5233 42.7156 18.9254L46.7262 14.9148C51.1145 19.6069 53.7048 25.8848 53.7048 32.6666C53.7047 46.9887 42.0531 58.6404 27.7313 58.6404C21.7982 58.6404 15.9968 56.588 11.3956 52.8613C11.0182 52.556 10.4652 52.614 10.1594 52.9911C9.85393 53.3683 9.91205 53.9218 10.2892 54.2273C15.2024 58.2067 21.3968 60.3982 27.7313 60.3982C43.0582 60.3982 55.4626 47.9954 55.4626 32.6669C55.4626 26.6654 53.5766 20.9536 50.0087 16.1491C49.6394 15.6517 49.2546 15.1695 48.857 14.7011C52.3024 14.9175 52.1167 14.9085 52.2257 14.9085ZM38.9424 32.6669C38.9424 38.8487 33.9132 43.8779 27.7313 43.8779C21.5496 43.8779 16.5204 38.8487 16.5204 32.6669C16.5204 26.4852 21.5496 21.456 27.7313 21.456C30.5065 21.456 33.049 22.47 35.0089 24.1464L31.0093 28.146C30.0877 27.476 28.9552 27.0793 27.7313 27.0793C24.6503 27.0793 22.1437 29.586 22.1437 32.6669C22.1437 35.7479 24.6503 38.2545 27.7313 38.2545C30.8124 38.2545 33.319 35.7479 33.319 32.6669C33.319 31.4429 32.9224 30.3104 32.2524 29.389L36.252 25.3894C37.9282 27.3492 38.9424 29.8917 38.9424 32.6669ZM27.1098 33.2885C27.4531 33.6317 28.0095 33.6317 28.3528 33.2885L30.9874 30.6539C31.3506 31.2392 31.5611 31.9289 31.5611 32.667C31.5611 34.7789 29.843 36.4968 27.7312 36.4968C25.6194 36.4968 23.9014 34.7788 23.9014 32.667C23.9014 30.5553 25.6194 28.8372 27.7312 28.8372C28.4694 28.8372 29.159 29.0477 29.7444 29.4109L27.1096 32.0456C26.7665 32.3887 26.7665 32.9452 27.1098 33.2885ZM47.2484 8.19565C47.2417 8.09006 47.2808 7.98658 47.3556 7.91193L52.521 2.74667L52.7506 6.40479L47.4675 11.6878L47.2484 8.19565ZM48.7105 12.9307L53.9936 7.64768L57.6517 7.87725L52.4863 13.0426C52.4117 13.1174 52.3074 13.1571 52.2026 13.1499L48.7105 12.9307Z" fill="#E89202"/>
</g>
<defs>
<clipPath id="clip0_1417_10953">
<rect width="60" height="60" fill="white" transform="translate(0 0.398438)"/>
</clipPath>
</defs>
</svg>
