<svg width="72" height="63" viewBox="0 0 72 63" fill="none" xmlns="http://www.w3.org/2000/svg">
<path d="M43.0599 15.5969L45.025 13.6383L45.3779 13.9935L46.3604 13.0143C46.561 12.8143 46.7921 12.6885 47.0308 12.6257L46.9026 12.1417C47.5876 11.9616 48.333 12.1642 48.8347 12.6669L48.4819 13.0202C48.6567 13.1954 48.7935 13.4212 48.8668 13.6956L49.2259 15.0396L49.7085 14.9115L50.4267 17.5995L49.9441 17.7276L50.6624 20.4156L51.145 20.2875L51.8632 22.9755L51.3806 23.1036L52.0988 25.7916L52.5814 25.6635L53.2997 28.3515L52.8171 28.4796L53.5353 31.1676L54.0179 31.0395L54.7361 33.7275L54.2535 33.8556L54.9718 36.5435L55.4544 36.4154L56.1726 39.1034L55.69 39.2315L56.4082 41.9195L56.8908 41.7914L57.609 44.4794L57.1265 44.6075L57.4856 45.9515C57.559 46.2262 57.5529 46.49 57.4886 46.7288L57.9709 46.8605C57.7861 47.5458 57.2397 48.0912 56.5549 48.2739L56.4251 47.7903C56.1864 47.8539 55.923 47.859 55.6491 47.7846L54.3075 47.4199L54.1779 47.9028L51.4946 47.1734L51.6242 46.6904L48.9409 45.961L48.8113 46.4439L46.128 45.7145L46.2576 45.2316L43.5743 44.5022L43.4447 44.9851L40.7614 44.2557L40.891 43.7728L38.2077 43.0433L38.0781 43.5263L35.3949 42.7968L35.5244 42.3139L32.8411 41.5845L32.7116 42.0674L30.0283 41.338L30.1579 40.8551L27.4746 40.1256L27.345 40.6086L24.6617 39.8791L24.7913 39.3962L23.4496 39.0315C23.1757 38.957 22.9507 38.8192 22.7763 38.6432L22.4223 38.9953C21.9219 38.4905 21.7226 37.7423 21.9057 37.0566L22.3884 37.1872C22.4522 36.9482 22.5789 36.7172 22.7797 36.5171L23.7622 35.5378L23.4094 35.1826L25.3744 33.2241L25.7273 33.5793L27.6924 31.6207L27.3395 31.2655L29.3045 29.3069L29.6574 29.6621L31.6225 27.7035L31.2696 27.3483L33.2346 25.3898L33.5875 25.745L35.5526 23.7864L35.1997 23.4312L37.1648 21.4726L37.5176 21.8278L39.4827 19.8693L39.1298 19.514L41.0949 17.5555L41.4478 17.9107L43.4128 15.9521L43.0599 15.5969Z" stroke="#A7A7A7" stroke-dasharray="3 3"/>
<path d="M22.3214 21.4958C23.4148 20.4124 25.2706 20.9169 25.6633 22.4042L31.2364 43.5103C31.6294 44.9988 30.2625 46.3553 28.7764 45.9513L7.68797 40.2186C6.20187 39.8147 5.71184 37.9534 6.8061 36.8692L22.3214 21.4958Z" fill="#EEA120" fill-opacity="0.7"/>
</svg>
