<svg width="25" height="24" viewBox="0 0 25 24" fill="none" xmlns="http://www.w3.org/2000/svg">
<g clip-path="url(#clip0_1417_15389)">
<path d="M12.6962 23.9998C19.3235 23.9998 24.6961 18.6273 24.6961 11.9999C24.6961 5.37254 19.3235 0 12.6962 0C6.06882 0 0.696289 5.37254 0.696289 11.9999C0.696289 18.6273 6.06882 23.9998 12.6962 23.9998Z" fill="#A7A7A7"/>
<path d="M20.0456 8.62398C19.5314 8.85201 18.9782 9.00623 18.3981 9.07511C18.9904 8.72024 19.445 8.15872 19.6595 7.48855C19.1053 7.81733 18.4912 8.05584 17.8381 8.18439C17.3149 7.62716 16.5694 7.27892 15.7439 7.27892C14.1601 7.27892 12.8756 8.56344 12.8756 10.1472C12.8756 10.372 12.9011 10.5909 12.9503 10.8009C10.5665 10.6814 8.45281 9.53951 7.03802 7.80364C6.79116 8.22718 6.64956 8.72024 6.64956 9.24581C6.64956 10.2407 7.15631 11.119 7.92553 11.6333C7.45557 11.6185 7.01299 11.4895 6.62645 11.2741C6.62624 11.2863 6.62624 11.2985 6.62624 11.3105C6.62624 12.7002 7.61536 13.8594 8.92726 14.1227C8.68683 14.1886 8.43292 14.2235 8.17174 14.2235C7.98649 14.2235 7.80702 14.2057 7.63204 14.1724C7.99697 15.3116 9.05604 16.141 10.3115 16.1643C9.32963 16.9337 8.09302 17.3921 6.74881 17.3921C6.51779 17.3921 6.2889 17.3787 6.06494 17.3519C7.33364 18.1661 8.8417 18.6407 10.4614 18.6407C15.7373 18.6407 18.6225 14.2701 18.6225 10.4794C18.6225 10.3551 18.6197 10.2313 18.6142 10.1085C19.175 9.70422 19.6612 9.19918 20.0456 8.62398Z" fill="#040505"/>
</g>
<defs>
<clipPath id="clip0_1417_15389">
<rect width="24" height="24" fill="white" transform="translate(0.695312)"/>
</clipPath>
</defs>
</svg>
